<?xml version="1.0" encoding="UTF-8" standalone="no"?>
<!-- Created with Inkscape (http://www.inkscape.org/) -->
<svg
   xmlns:dc="http://purl.org/dc/elements/1.1/"
   xmlns:cc="http://creativecommons.org/ns#"
   xmlns:rdf="http://www.w3.org/1999/02/22-rdf-syntax-ns#"
   xmlns:svg="http://www.w3.org/2000/svg"
   xmlns="http://www.w3.org/2000/svg"
   xmlns:xlink="http://www.w3.org/1999/xlink"
   xmlns:sodipodi="http://sodipodi.sourceforge.net/DTD/sodipodi-0.dtd"
   xmlns:inkscape="http://www.inkscape.org/namespaces/inkscape"
   id="svg2440"
   sodipodi:version="0.32"
   inkscape:version="0.46"
   width="394"
   height="394"
   version="1.0"
   sodipodi:docname="clock1.svg"
   inkscape:output_extension="org.inkscape.output.svg.inkscape">
  <metadata
     id="metadata2445">
    <rdf:RDF>
      <cc:Work
         rdf:about="">
        <dc:format>image/svg+xml</dc:format>
        <dc:type
           rdf:resource="http://purl.org/dc/dcmitype/StillImage" />
      </cc:Work>
    </rdf:RDF>
  </metadata>
  <defs
     id="defs2443">
    <inkscape:perspective
       sodipodi:type="inkscape:persp3d"
       inkscape:vp_x="0 : 526.18109 : 1"
       inkscape:vp_y="0 : 1000 : 0"
       inkscape:vp_z="744.09448 : 526.18109 : 1"
       inkscape:persp3d-origin="372.04724 : 350.78739 : 1"
       id="perspective2447" />
  </defs>
  <sodipodi:namedview
     inkscape:window-height="706"
     inkscape:window-width="1366"
     inkscape:pageshadow="2"
     inkscape:pageopacity="0.0"
     guidetolerance="10.0"
     gridtolerance="10.0"
     objecttolerance="10.0"
     borderopacity="1.0"
     bordercolor="#666666"
     pagecolor="#ffffff"
     id="base"
     showgrid="false"
     inkscape:zoom="1.1725888"
     inkscape:cx="197"
     inkscape:cy="197"
     inkscape:window-x="-8"
     inkscape:window-y="-8"
     inkscape:current-layer="svg2440" />
  <image
     xlink:href="clock1.jpg"
     sodipodi:absref="C:\Users\biohazzard\Documents\SVG Files\Yo, Make me!\clock1.jpg"
     width="394"
     height="394"
     id="image2449"
     x="0"
     y="0" />
  <path
     style="fill:#000000"
     d="M 164.5,389.52639 C 123.02741,382.91293 80.024787,359.25361 51.762279,327.5 C 47.356499,322.55 43.035961,317.375 42.161083,316 C 41.286205,314.625 38.202814,310.2564 35.309102,306.29199 C 20.879082,286.52276 7.2066928,251.41229 4.0527678,226.02623 C 2.694964,215.09722 2.6934088,178.92116 4.050272,167.97377 C 7.2986242,141.76553 21.014154,107.3647 36.995447,85.341792 C 54.076308,61.803629 69.355644,47.128609 92.5,32.032512 C 112.25174,19.149275 142.67794,7.6858169 166.69155,4.0798947 C 175.94958,2.6896957 216.50763,2.6801422 226.67764,4.0657649 C 244.06559,6.4348031 268.52902,14.341139 285.85589,23.191588 C 304.86613,32.901889 328.57919,50.917699 341.08028,65.147881 C 364.08304,91.332272 378.4913,118.50738 386.86421,151.5 C 390.07191,164.13961 391.0001,174.7976 390.99863,198.97377 C 390.9969,227.60568 389.69923,235.70581 380.87643,262.1572 C 377.0706,273.56733 366.28035,296.14912 361.83834,302 C 360.79444,303.375 356.96269,308.55 353.32334,313.5 C 340.20198,331.3468 329.05227,342.20521 308.63237,357.02335 C 286.82416,372.84894 253.31631,386.30482 226.67764,389.93424 C 215.99557,391.38962 174.47639,391.11729 164.5,389.52639 z M 208.13326,384.60687 C 208.98548,382.73645 208.66494,379.51475 206.66571,369.85687 C 205.25885,363.06059 203.84448,355.475 203.52268,353 C 202.11102,342.14291 200.64513,339.91119 199.41742,346.75 C 199.04716,348.8125 197.5013,356.35 195.98219,363.5 C 194.46307,370.65 192.93353,378.14326 192.58321,380.1517 C 191.66481,385.41693 193.63193,387 201.09287,387 C 206.39827,387 207.16101,386.74073 208.13326,384.60687 z M 176.8,384.8 C 178.59457,383.00543 178.50844,323.66686 176.7091,322.17354 C 175.99911,321.5843 173.41161,320.6352 170.9591,320.06443 C 168.5066,319.49367 162.11224,317.73738 156.74942,316.16157 C 149.52364,314.03835 146.75114,313.59493 146.04224,314.44911 C 145.51611,315.08306 143.88186,319.40385 142.41057,324.05087 C 140.93929,328.69789 137.32957,339.10342 134.38897,347.17427 C 128.57646,363.12741 126.70335,370.06337 127.58625,372.36416 C 128.40765,374.5047 133.23394,376.54243 144.54661,379.52507 C 154.53684,382.15904 171.15271,385.75815 174.05,385.91571 C 174.9025,385.96207 176.14,385.46 176.8,384.8 z M 230.5,383.9465 C 242.98196,381.59111 259.80609,376.7321 268,373.11605 C 275.79386,369.67655 276.5254,369.10904 276.80573,366.28474 C 276.9744,364.58542 275.96736,360.4863 274.55941,357.14115 C 270.67982,347.92365 266.00332,334.8076 265.97283,333.0586 C 265.92983,330.59188 257.29815,309.59938 256.17263,309.22421 C 255.61474,309.03825 252.98517,309.98671 250.32914,311.33191 C 241.51391,315.79657 217.37445,322 208.81634,322 C 205.66236,322 205,322.3483 205,324.0068 C 205,325.11054 207.27329,336.60317 210.05175,349.54598 C 212.83022,362.48878 215.37028,375.33078 215.69632,378.08373 C 216.34462,383.55762 218.80757,386.27318 222.43383,385.51228 C 223.57023,385.27382 227.2,384.56923 230.5,383.9465 z M 188.78461,380.48905 C 189.49114,378.3672 190.32059,373.90163 190.62783,370.56557 C 190.93507,367.22951 192.95415,355.53216 195.11468,344.57146 C 197.27521,333.61077 198.69577,324.33127 198.27146,323.95036 C 196.79486,322.62477 187.31213,322.08787 186.1367,323.2633 C 184.42097,324.97903 184.53215,385.32007 186.25,384.75681 C 186.9375,384.53139 188.07807,382.61089 188.78461,380.48905 z M 121.97087,361.25409 C 123.13556,358.08934 124.93981,353.25 125.98031,350.5 C 129.11345,342.21923 132.8163,329 132.0027,329 C 131.58372,329 129.52758,331.09091 127.4335,333.64646 C 125.33941,336.20202 122.0227,339.98815 120.06303,342.06009 C 108.40492,354.38612 104.36326,359.89829 105.26348,362.24424 C 105.5792,363.06698 108.18199,364.90844 111.04747,366.33636 C 117.62028,369.61173 119.15846,368.89607 121.97087,361.25409 z M 290.44121,362.26817 C 296.1185,358.83897 296.64211,357.45352 293.78075,353.432 C 290.24285,348.45961 272.78226,328.60271 270.18161,326.59408 C 267.18889,324.28263 266.47206,325.07671 268.3193,328.65707 C 270.57863,333.03617 276.93438,350.40339 277.65009,354.15369 C 278.69932,359.65161 281.82043,365 283.97957,365 C 285.04597,365 287.95371,363.77068 290.44121,362.26817 z M 103.25982,354.25 C 109.10554,348.3351 140,311.26151 140,310.16151 C 140,309.07581 131.43973,304 129.60872,304 C 128.98207,304 125.55125,308.96208 121.98468,315.02684 C 118.4181,321.09159 113.29108,329.75409 110.59128,334.27684 C 104.49545,344.48866 98.061298,356.25255 98.026309,357.25 C 97.970395,358.84396 99.698745,357.85322 103.25982,354.25 z M 94.628257,347.25 C 96.610136,344.0875 99.230347,339.925 100.45095,338 C 108.517,325.2791 122.11069,299.98811 121.45353,298.9248 C 120.10762,296.74708 117.856,298.35253 115.38753,303.25 C 113.93214,306.1375 110.78396,311.537 108.39157,315.24889 C 105.99919,318.96078 103.07966,323.91078 101.90374,326.24889 C 100.72782,328.587 97.566551,334.16559 94.878701,338.64575 C 89.874965,346.98607 87.783794,353 89.887421,353 C 90.513003,353 92.646379,350.4125 94.628257,347.25 z M 315.53801,345.6269 C 324.69623,338.2963 344.21186,318.44033 346.3282,314.29975 C 348.2233,310.59204 347.16302,308.05513 341.96964,303.87114 C 339.66821,302.01701 333.22104,296.65723 327.64261,291.9605 C 308.52549,275.86498 301.21607,270.00007 300.35847,270.06832 C 299.88631,270.1059 296.8543,273.50993 293.62067,277.63282 C 287.37794,285.59233 277.39696,294.72411 268.43958,300.67148 C 265.44781,302.6579 263,304.83967 263,305.51985 C 263,306.20002 265.81666,309.84881 269.25923,313.62827 C 272.70181,317.40772 279.75324,325.45 284.92907,331.5 C 298.54696,347.41786 303.14504,352 305.50042,352 C 306.642,352 311.15892,349.13211 315.53801,345.6269 z M 84.811608,341.75 C 86.410837,339.4125 89.425493,334.35 91.510843,330.5 C 93.596194,326.65 98.324592,318.325 102.01839,312 C 110.39768,297.65192 112,294.51783 112,292.47633 C 112,291.02213 100.22408,277.02014 99,277.01888 C 98.725,277.0186 95.255864,280.08907 91.290809,283.84215 C 87.325754,287.59522 77.089865,296.70359 68.544389,304.08296 C 57.572349,313.55777 53.006109,318.12584 53.00358,319.63001 C 52.999037,322.33266 77.220152,346 79.990586,346 C 81.118791,346 83.097076,344.25603 84.811608,341.75 z M 212.5,316.52977 C 226.68919,314.83815 235.40708,312.14374 251.05291,304.61437 C 273.0885,294.01 294.10191,272.99479 304.66177,251.00092 C 312.428,234.82555 314.87,226.65088 316.68581,210.75 C 318.11272,198.2546 318.11272,195.7454 316.68581,183.25 C 314.86896,167.34003 312.42692,159.18077 304.63913,143 C 294.06959,121.03956 273.28819,100.20185 251.28554,89.501872 C 235.53127,81.840506 226.72348,79.143843 211.5,77.32082 C 200.58991,76.014328 196.49047,75.95505 186,76.952084 C 179.125,77.605497 170.16785,79.051642 166.09522,80.165738 C 158.20281,82.324762 136.49018,91.849403 131.5,95.341562 C 119.61605,103.65803 102.85948,120.38436 95.369482,131.40689 C 91.520299,137.07147 82.385794,157.89589 80.195423,166 C 76.789689,178.60081 75.580403,194.94662 76.999965,209.19268 C 77.674471,215.96171 79.146135,224.65 80.270331,228.5 C 82.519635,236.20313 92.051702,257.76527 95.300857,262.5 C 103.21016,274.02559 120.20678,290.88648 131.98249,298.8887 C 136.91431,302.24014 157.31513,311.40972 164.5,313.50439 C 170.86253,315.35932 187.16098,317.6387 195.5,317.83981 C 198.25,317.90614 205.9,317.31662 212.5,316.52977 z M 53.660202,307.1242 C 56.322091,304.99251 61.04699,300.83001 64.159978,297.8742 C 67.272966,294.91839 71.885466,290.7901 74.409978,288.70023 C 76.93449,286.61035 79,284.49353 79,283.99618 C 79,282.7315 45.668497,293.90248 41.25,296.64802 C 39.961856,297.44843 39,299.04084 39,300.37301 C 39,303.55136 44.548798,311 46.916475,311 C 47.963636,311 50.998314,309.25589 53.660202,307.1242 z M 355.32363,301.75 C 360.84402,294.35279 360.83076,290.92552 355.27638,289.535 C 353.74937,289.15272 345.79813,286.40096 337.60695,283.41997 C 329.41577,280.43899 322.04817,278 321.2345,278 C 319.05764,278 320.85727,279.90543 331.47344,288.8409 C 336.43805,293.01953 340.87245,297.03727 341.32766,297.7692 C 342.52122,299.68829 350.0666,305 351.59915,305 C 352.31364,305 353.98965,303.5375 355.32363,301.75 z M 43.483822,290.98004 C 46.224924,290.37872 50.499924,288.9768 52.983822,287.86468 C 60.070811,284.69158 72.65907,280.20298 79.095286,278.5541 C 82.325995,277.72643 87.257933,275.88951 90.055148,274.47205 L 95.140993,271.89486 L 92.670717,267.71194 C 88.791462,261.14319 88.095286,261.0215 79.272743,265.36996 C 74.997735,267.47702 68.948429,270.93472 65.829843,273.05371 C 62.711256,275.17271 58.661256,277.57153 56.829843,278.38441 C 46.277988,283.06793 29.749385,294.73492 36.631687,292.64162 C 37.659259,292.32907 40.74272,291.58136 43.483822,290.98004 z M 41.826814,278.63279 C 47.147066,275.68083 53.075,272.27098 55,271.05535 C 56.925,269.83972 63.9,265.80569 70.5,262.09083 C 77.868949,257.94317 82.635574,254.63667 82.851299,253.52301 C 83.417536,250.59989 77.655724,252.31535 69,257.64695 C 64.875,260.18779 56.55,265.06864 50.5,268.49327 C 31.997909,278.96649 29.512326,280.57822 29.176916,282.31986 C 28.630833,285.15545 31.665148,284.27103 41.826814,278.63279 z M 364,282.54215 C 364,281.05371 362.92227,280.36395 345.5,270.7018 C 340,267.65158 332.23238,263.07156 328.23863,260.52399 C 318.11099,254.06367 313.04133,251.90751 310.79981,253.10714 C 308.67081,254.24655 303.66367,263.6741 304.81092,264.38314 C 305.24599,264.65203 309.62901,266.23596 314.55098,267.90298 C 319.47294,269.57 332.05,273.83971 342.5,277.39121 C 352.95,280.94271 362.0625,283.88258 362.75,283.92424 C 363.4375,283.96591 364,283.34397 364,282.54215 z M 373.05374,268.25 C 376.59174,260.48023 382.11808,240.78702 384.60515,227.08634 L 386.314,217.67268 L 384.04621,215.83634 C 381.96272,214.14923 379.45106,214.00124 353.13922,214.01531 C 337.38765,214.02373 323.89343,214.41503 323.15206,214.88486 C 322.41069,215.35469 320.92136,219.2853 319.84244,223.61955 C 318.76351,227.9538 317.24899,233.96653 316.47684,236.98118 C 314.64432,244.13571 315.37753,245.21715 326.12059,251.2052 C 330.72927,253.77402 336.75,257.25851 339.5,258.94851 C 348.86842,264.70583 367.49631,274.89987 368.74004,274.95001 C 369.42207,274.9775 371.36323,271.9625 373.05374,268.25 z M 37.32037,267.84598 C 43.469166,264.46127 50.75,260.26765 53.5,258.52681 C 56.25,256.78598 62.392111,253.24359 67.149135,250.65483 C 76.97008,245.3103 78.942512,243.54251 77.119188,241.71919 C 76.191124,240.79112 74.934998,241.08069 71.512929,243.01157 C 61.749389,248.52058 53.122286,253.52204 46,257.8024 C 41.875,260.28145 36.025,263.65876 33,265.30753 C 26.383665,268.91375 24,270.85974 24,272.65499 C 24,274.86962 25.629994,274.28115 37.32037,267.84598 z M 27.594964,260.20108 C 30.842734,258.11167 37.55,254.21541 42.5,251.54272 C 47.45,248.87002 53.3,245.48457 55.5,244.01949 C 57.7,242.55441 62.56228,239.6648 66.305066,237.59812 C 74.442278,233.10495 75.561501,231.02171 73.966358,223.33795 C 72.118795,214.43828 73.808206,214.84821 40.407929,215.1952 C 14.637118,215.46292 10.866116,215.70239 9.4059646,217.16391 C 7.8561184,218.71521 7.9174399,219.66274 10.312002,231.16391 C 13.741989,247.63826 17.857206,262.28884 19.315131,263.21592 C 21.091766,264.34568 21.231957,264.29463 27.594964,260.20108 z M 70.538944,207.93699 C 71.340095,206.6407 68.221968,203 66.310591,203 C 65.551902,203 59.728741,200.94239 53.370232,198.42753 L 41.809307,193.85506 L 26.154653,199.01641 C 9.0200186,204.6657 7.348859,205.5105 9.1101135,207.63268 C 10.023437,208.73317 16.063992,209 40.063428,209 C 60.042152,209 70.098762,208.64922 70.538944,207.93699 z M 383.6849,205.92968 C 386.38512,204.90304 386.41838,204.81122 384.5,203.67968 C 382.26598,202.36197 324.73234,201.93432 323.44083,203.22583 C 323.04162,203.62504 323.28422,204.63754 323.97994,205.47583 C 325.05777,206.77453 329.35913,207 353.05735,207 C 370.39704,207 381.92982,206.59697 383.6849,205.92968 z M 69.60549,198.23469 C 70.213509,197.83061 70.944781,195.37094 71.230539,192.76875 C 71.967916,186.054 70.681067,185.29971 62.785189,187.81849 C 59.328335,188.92122 55.2625,190.09675 53.75,190.43078 C 51.003285,191.03738 49.885305,192.974 52.25,193.02916 C 52.9375,193.04519 56.65,194.36749 60.5,195.96759 C 68.508671,199.29607 68.144754,199.20546 69.60549,198.23469 z M 19.570259,192.75 C 23.646321,191.5125 26.985492,190.24646 26.99064,189.93658 C 27.008505,188.8612 12.903695,183.87367 10.727892,184.18598 C 6.3138826,184.81957 5.7215276,195 10.098671,195 C 11.231983,195 15.494198,193.9875 19.570259,192.75 z M 384.99164,194.02633 C 386.20977,193.2562 386.24672,192.84644 385.19316,191.79164 C 383.62837,190.225 327.38584,189.36764 325.10428,190.87565 C 324.33664,191.38302 323.98502,192.51857 324.3229,193.39908 C 324.86702,194.81703 328.28378,194.99825 354.21862,194.98469 C 370.81006,194.97601 384.14645,194.56068 384.99164,194.02633 z M 53.078818,182.59461 C 60.460468,180.17164 67.680535,177.92736 69.123411,177.60733 C 72.17344,176.93081 72.594891,175.9849 77.043725,159.83087 C 78.905674,153.07001 80.003904,147.15169 79.65471,145.76039 C 79.078905,143.4662 64.86202,124.72575 61.912678,122.37315 C 60.310439,121.09509 41.158922,116.48474 33.313325,115.48841 C 30.460654,115.12614 27.396984,115.23808 26.50517,115.73717 C 22.636604,117.90213 14.237232,142.38357 9.9466069,164 C 8.1396374,173.10362 8.1348664,173.60117 9.8322607,175.92481 C 10.88702,177.36871 14.212046,179.25981 18.05178,180.59964 C 21.598301,181.83716 26.75,183.76245 29.5,184.87806 C 32.25,185.99368 35.660468,186.9275 37.078818,186.95323 C 38.497168,186.97895 45.697168,185.01757 53.078818,182.59461 z M 384,182 C 386.40919,179.59081 386.4845,176.81357 384.43763,165.86047 C 379.88423,141.49453 370.10738,114.87338 365.4682,114.20904 C 364.35071,114.04902 359.40071,116.33192 354.4682,119.28216 C 349.53569,122.2324 341.675,126.78885 337,129.40759 C 320.09621,138.87641 313.49459,143.01851 313.2077,144.33576 C 313.04693,145.0739 314.12471,149.68782 315.60276,154.58891 C 317.08081,159.49001 319.14383,167.55 320.18726,172.5 C 321.3174,177.86143 322.75103,182.00536 323.73332,182.75 C 324.96241,183.68173 332.59013,184 353.69113,184 C 380.66667,184 382.0942,183.9058 384,182 z M 87.561597,134.87844 C 88.989006,132.06159 89.784087,129.40941 89.328443,128.98472 C 88.169321,127.90433 70.879096,123.78757 70.229385,124.43728 C 69.936841,124.72983 71.678053,127.16738 74.098744,129.85407 C 76.519435,132.54076 79.47845,135.92269 80.674332,137.36948 C 81.870215,138.81627 83.325134,140 83.907486,140 C 84.489838,140 86.134188,137.6953 87.561597,134.87844 z M 319,131.4944 C 327.97576,126.2054 345.42196,116.30384 346.5,115.88682 C 349.97123,114.54407 361,106.57562 361,105.41036 C 361,103.1444 358.63011,103.74542 351.33953,107.86033 C 347.57779,109.98351 341.35,113.43424 337.5,115.52861 C 333.65,117.62298 329.15,120.32507 327.5,121.53324 C 325.85,122.74142 321.2743,125.40209 317.33178,127.44586 C 308.93683,131.79771 305.81667,134.65063 307.98588,135.99127 C 309.50599,136.93075 310.37922,136.57422 319,131.4944 z M 311.88974,122.38244 C 320.21184,117.33298 322.90785,115.78586 340,106.25129 C 351.84245,99.645171 356,96.568112 356,94.409463 C 356,91.511841 344.9204,76.977968 334.36641,66.031208 C 317.81732,48.866225 300.62046,35.780457 296.62621,37.313196 C 295.69159,37.671842 294.15585,39.384691 293.21345,41.119527 C 292.27105,42.854363 289.98121,46.574676 288.12492,49.386888 C 286.26862,52.199099 282.46419,58.775 279.67062,64 C 276.87705,69.225 272.65834,76.396249 270.2957,79.93611 C 266.17306,86.112924 265.18683,89.344954 266.76531,91.505689 C 267.16939,92.058818 269.3,93.82441 271.5,95.429226 C 280.29119,101.84206 288.72696,109.92996 295.30232,118.25 C 299.10566,123.0625 302.68143,127 303.24848,127 C 303.81552,127 307.70409,124.9221 311.88974,122.38244 z M 98.580816,117.6887 C 99.725264,116.48492 104.38874,111.54224 108.94408,106.70498 L 117.22654,97.909961 L 116.55126,90.20498 C 115.61168,79.484145 113.95744,69.884168 112.62488,67.419144 C 111.1803,64.746894 90.408602,45.729236 87.899658,44.781812 C 86.853621,44.386809 85.210774,44.348896 84.248886,44.69756 C 78.425747,46.80833 54.576883,69.777127 45.729338,81.795666 C 42.092453,86.736025 41.267563,88.549072 41.890524,90.233095 C 42.326928,91.412806 46.644835,97.225186 51.485873,103.14949 C 60.155031,113.75853 60.372301,113.93814 65.893881,115.06016 C 68.977246,115.68671 76,117.2446 81.5,118.52214 C 92.53568,121.0855 95.488432,120.94142 98.580816,117.6887 z M 48.208137,106.25 C 41.014397,97.660406 38.955296,95.953557 37.029873,96.984012 C 33.295064,98.982821 30.748207,105.10832 33.058329,106.53605 C 35.04234,107.76224 46.491453,110.84691 49.343118,110.92357 L 52.186237,111 L 48.208137,106.25 z M 129.03984,90.979676 C 131.47955,89.735026 133,88.255183 133,87.125269 C 133,85.241446 119.3344,72.332268 118.36568,73.30099 C 117.912,73.75467 120.04887,85.421834 121.65308,91.25 C 122.28041,93.52911 124.17871,93.459641 129.03984,90.979676 z M 258.03437,84.981608 C 259.08095,84.421492 261.14154,81.833992 262.61344,79.231608 C 264.08535,76.629224 268.44939,69.1 272.31132,62.5 C 290.28821,31.777597 289.93488,32.501379 287.92735,30.510912 C 287.14231,29.732548 280.37481,26.378275 272.88847,23.056973 C 260.74398,17.669091 242.32464,12.041514 228.88849,9.6138648 C 222.53594,8.4660832 222.5,8.6457325 222.5,41.547476 C 222.5,68.362906 222.65017,70.954715 224.31015,72.789574 C 225.38739,73.980287 230.06042,75.871025 235.85148,77.459267 C 241.20362,78.927133 247.81405,81.441615 250.54133,83.047004 C 256.31419,86.445164 255.62984,86.268473 258.03437,84.981608 z M 143.96839,80.75 C 143.90442,78.220929 121.08421,38.356666 114.63044,29.5 C 113.49515,27.942013 112.90106,27.763928 111.94232,28.694207 C 110.9697,29.637961 111.27948,32.957406 113.41941,44.5219 L 116.12723,59.155386 L 122.81361,65.410971 C 140.09837,81.582075 144.06212,84.456137 143.96839,80.75 z M 163.97507,75.714596 C 169.23823,73.914495 170.9667,72.751339 173.21005,69.5 C 174.728,67.3 176.47995,63.7 177.10326,61.5 C 177.72657,59.3 179.34515,54.0129 180.7001,49.750889 L 183.16365,42.001777 L 181.10481,35.750889 C 179.97245,32.3129 178.56757,27.25 177.98287,24.5 C 177.39817,21.75 175.68522,17.25 174.17632,14.5 C 171.47377,9.5745399 171.36629,9.5033357 166.96644,9.7237496 C 160.27136,10.059145 135.37358,16.653486 128.25,19.978053 C 120.94852,23.385646 120.61549,24.535633 124.86017,31.683554 C 126.43326,34.332599 130.1049,40.775 133.01936,46 C 141.45194,61.11777 149.2496,74.352967 150.84148,76.25 C 152.7693,78.547374 156.08813,78.412079 163.97507,75.714596 z M 189.92137,70.594744 C 191.96403,68.133495 187.08956,50.510435 184.95621,52.643786 C 183.51708,54.082919 179,66.883668 179,69.522829 C 179,71.820476 179.35348,72 183.87756,72 C 186.84705,72 189.21134,71.450276 189.92137,70.594744 z M 215.78051,42.486701 C 215.93479,27.094015 215.81372,13.4875 215.51146,12.25 C 214.80226,9.3464398 212.40841,9.3464398 211.63029,12.25 C 210.78174,15.416338 210.84778,69.51445 211.70124,70.367903 C 212.08692,70.753583 213.09942,70.935098 213.95124,70.77127 C 215.29753,70.512341 215.53667,66.814735 215.78051,42.486701 z M 203.78051,41.486701 C 203.93479,26.094015 203.80375,12.447787 203.48931,11.161749 C 202.99455,9.1382129 202.7004,9.0036191 201.30389,10.161749 C 198.31026,12.644386 190.88773,32.78188 190.85863,38.5 C 190.84744,40.7 192.23358,46.775 193.93894,52 C 199.29512,68.410617 200.06208,70.134658 201.85313,69.790165 C 203.32744,69.506591 203.52939,66.540995 203.78051,41.486701 z M 107.98821,41.930104 C 106.93776,35.702322 105.14044,31.992931 103.17857,32.003738 C 101.24574,32.014385 96.001176,36.206917 96.00878,37.735302 C 96.013609,38.705886 98.823855,42.404703 102.25377,45.954896 C 109.37542,53.326274 109.85379,52.99052 107.98821,41.930104 z M 189.48291,26.25 C 189.8662,25.2875 191.01004,21.378159 192.02477,17.562575 C 194.32315,8.9203029 193.59144,7 188,7 C 182.01071,7 181.22481,9.3479216 184.02256,18.882792 C 185.25184,23.072256 186.45122,26.8375 186.68783,27.25 C 187.43058,28.544874 188.75819,28.069892 189.48291,26.25 z"
     id="path2451" />
</svg>
